<svg xmlns="http://www.w3.org/2000/svg" xmlns:xlink="http://www.w3.org/1999/xlink" data-v-0dd9719b="" version="1.0" preserveAspectRatio="xMidYMid meet" color-interpolation-filters="sRGB" style="margin: auto;" viewBox="81.02 84.5 177.96 81">   <g data-v-0dd9719b="" fill="#333333" class="icon-text-wrapper icon-svg-group iconsvg" transform="translate(81.0199966430664,84.49812316894531)"><g class="iconsvg-imagesvg" transform="translate(58.980003356933594,0)"><g><rect fill="#333333" fill-opacity="0" stroke-width="2" x="0" y="0" width="60" height="56.563752062220125" class="image-rect"/> <svg filter="url(#colors6129826980)" x="0" y="0" width="60" height="56.563752062220125" filtersec="colorsf4693129630" class="image-svg-svg primary" style="overflow: visible;"><svg xmlns="http://www.w3.org/2000/svg" version="1.0" viewBox="15.923789024353027 30.099990844726562 563.0050048828125 530.7598266601562" preserveAspectRatio="xMidYMid meet" x="0px" y="0px"><g transform="translate(0.000000,600.000000) scale(0.100000,-0.100000)" stroke="none"><path d="M3823 5689 c-157 -20 -367 -116 -546 -249 -133 -99 -333 -292 -440 -425 -141 -175 -270 -385 -348 -564 l-36 -84 34 -96 c72 -201 117 -414 132 -623 4 -69 11 -131 15 -137 5 -7 41 -11 95 -11 101 0 206 24 319 72 l76 33 2 70 c6 192 135 340 391 450 74 32 185 65 265 79 42 8 81 52 183 211 400 620 402 1210 4 1275 -35 5 -68 9 -74 9 -5 -1 -38 -5 -72 -10z"/><path d="M1325 5338 c-118 -44 -207 -165 -257 -349 -21 -76 -23 -106 -23 -299 0 -182 4 -232 23 -326 65 -325 166 -591 321 -852 105 -176 168 -255 211 -263 279 -56 495 -124 675 -214 l127 -62 39 59 c61 96 96 208 114 364 l7 62 -47 23 c-57 29 -125 100 -159 168 -46 89 -59 169 -52 321 5 134 13 177 56 322 l22 76 -45 101 c-100 222 -235 431 -382 588 -105 113 -192 180 -313 241 -90 45 -98 46 -190 49 -54 1 -110 -2 -127 -9z"/><path d="M3953 4166 l-92 -11 -64 -75 c-144 -168 -335 -338 -499 -444 -56 -36 -88 -64 -88 -75 0 -25 66 -130 122 -195 26 -30 84 -82 128 -115 l81 -61 37 25 c58 38 121 57 197 57 179 2 351 -86 543 -278 l102 -103 111 -12 c144 -15 485 -6 602 15 143 27 256 63 367 118 132 64 234 160 269 252 105 282 -205 604 -758 786 -334 110 -741 155 -1058 116z"/><path d="M995 3210 c-409 -35 -713 -176 -806 -374 -145 -307 253 -682 907 -852 254 -66 564 -95 809 -76 85 7 161 15 169 18 8 3 58 54 110 114 145 165 330 323 496 426 33 20 60 42 60 49 0 6 -14 40 -31 74 -36 72 -164 208 -247 263 l-53 36 -71 -37 c-69 -35 -74 -36 -182 -36 -105 0 -115 2 -192 36 -119 52 -217 122 -332 237 l-104 103 -71 8 c-116 15 -354 20 -462 11z"/><path d="M3519 3068 c-63 -85 -110 -229 -124 -376 l-7 -67 46 -24 c57 -30 126 -103 160 -169 75 -149 75 -369 -1 -625 l-26 -87 29 -72 c16 -39 59 -128 96 -196 192 -351 431 -600 670 -694 78 -32 225 -32 289 0 103 51 187 173 230 337 30 113 37 357 15 520 -39 298 -147 617 -302 897 -55 98 -105 175 -198 301 -9 11 -41 22 -92 32 -238 42 -449 111 -644 210 l-110 55 -31 -42z"/><path d="M3135 2580 c-68 -10 -156 -36 -241 -72 l-72 -30 -4 -86 c-3 -68 -10 -98 -30 -138 -94 -181 -310 -314 -609 -374 -55 -11 -57 -13 -111 -88 -428 -600 -513 -1211 -191 -1369 46 -22 74 -28 147 -31 265 -12 586 157 901 472 176 176 305 343 425 551 58 100 140 276 140 301 0 9 -14 55 -31 102 -71 200 -118 433 -134 663 l-7 97 -45 6 c-52 7 -68 6 -138 -4z"/></g></svg></svg> <defs><filter id="colors6129826980"><feColorMatrix type="matrix" values="0 0 0 0 0.0859375  0 0 0 0 0.515625  0 0 0 0 0.671875  0 0 0 1 0" class="icon-fecolormatrix"/></filter> <filter id="colorsf4693129630"><feColorMatrix type="matrix" values="0 0 0 0 0.99609375  0 0 0 0 0.99609375  0 0 0 0 0.99609375  0 0 0 1 0" class="icon-fecolormatrix"/></filter> <filter id="colorsb5962808711"><feColorMatrix type="matrix" values="0 0 0 0 0  0 0 0 0 0  0 0 0 0 0  0 0 0 1 0" class="icon-fecolormatrix"/></filter></defs></g></g> <g transform="translate(0,63.563751220703125)"><g data-gra="path-name" fill-rule="" class="tp-name iconsvg-namesvg" fill="white"><g transform="scale(1)"><g><path d="M8.45-5.82C12.87-5.82 14.69-8.52 14.69-11.67 14.69-14.76 13.12-17.19 8.45-17.19L1.67-17.19 1.67 0 4.99 0 4.99-5.82ZM7.88-14.3C10.24-14.3 11.2-13.36 11.2-11.57 11.2-9.78 10.05-8.72 7.91-8.72L4.99-8.72 4.99-14.3ZM32.4 0L35.72 0 35.72-6.07 39.57-6.07 42.79 0 46.52 0 42.52-6.63C44.61-7.66 45.54-9.92 45.54-11.77 45.54-15.23 43.38-17.19 39.5-17.19L16.53-17.19 16.53-14.2 39.13-14.2C41.34-14.2 42.42-13.39 42.42-11.69 42.42-9.87 41.14-8.82 39.15-8.82L32.4-8.82ZM29.25-7.07L29.25-10.12 16.53-10.12 16.53-7.07ZM16.53 0L29.25 0 29.25-3.24 16.53-3.24ZM55.1-5.82C59.52-5.82 61.33-8.52 61.33-11.67 61.33-14.76 59.76-17.19 55.1-17.19L48.32-17.19 48.32-14.3 54.53-14.3C56.89-14.3 57.85-13.36 57.85-11.57 57.85-9.78 56.69-8.72 54.56-8.72L48.32-8.72 48.32 0 51.63 0 51.63-5.82ZM63.18-13.98L91.2-13.98 91.2-17.19 63.18-17.19ZM82.73-11.79L82.73 0 86.05 0 86.05-11.79ZM75.9-7.07L75.9-10.12 63.18-10.12 63.18-7.07ZM63.18 0L75.9 0 75.9-3.24 63.18-3.24ZM103.9-6.21L107.27-6.21 107.27-17.19 103.9-17.19ZM100.07 0.25C100.07 0.25 100.1-2.48 100.1-3 97.74-3 96.12-4.25 96.12-6.71L96.12-17.19 92.85-17.19 92.85-6.21C92.85-1.82 96.09 0.25 100.07 0.25ZM118.64-17.19L114.44-17.19 108.28 0 111.86 0 116.43-13.63 116.68-13.63 121.56 0 125.4 0ZM130.53-5.13L130.53-17.19 127.19-17.19 127.19-5.13ZM127.19 0L139.69 0 139.69-3.24 127.19-3.24ZM144.06 0L147.55 0 151.38-11.77 151.56-11.77 155.07 0 158.53 0 164.82-17.19 161.06-17.19 157.11-4.47 156.94-4.47 152.93-17.19 150.25-17.19 146.15-4.47 145.98-4.47 141.71-17.19 137.95-17.19ZM173.39-5.82C177.81-5.82 179.63-8.52 179.63-11.67 179.63-14.76 178.06-17.19 173.39-17.19L166.61-17.19 166.61 0 169.93 0 169.93-5.82ZM172.83-14.3C175.19-14.3 176.14-13.36 176.14-11.57 176.14-9.78 174.99-8.72 172.85-8.72L169.93-8.72 169.93-14.3Z" transform="translate(-1.6700000762939453, 17.190000534057617)"/></g> <!----> <!----> <!----> <!----> <!----> <!----> <!----></g></g> <!----></g></g><defs v-gra="od"/></svg>